{
  "accessors": [
    {
      "bufferView": 2,
      "componentType": 5126,
      "count": 9610,
      "max": [
        1.3871610164642334,
        2.2350831031799316,
        1.0872490406036377
      ],
      "min": [
        -1.3871610164642334,
        -4.003698348999023,
        0.0984232947230339
      ],
      "type": "VEC3"
    },
    {
      "bufferView": 2,
      "byteOffset": 115320,
      "componentType": 5126,
      "count": 9610,
      "max": [
        1.0,
        0.9990606307983398,
        1.0
      ],
      "min": [
        -1.0,
        -0.9991534948348999,
        -1.0
      ],
      "type": "VEC3"
    },
    {
      "bufferView": 1,
      "componentType": 5126,
      "count": 9610,
      "max": [
        0.75,
        0.875
      ],
      "min": [
        0.25,
        0.375
      ],
      "type": "VEC2"
    },
    {
      "bufferView": 0,
      "componentType": 5125,
      "count": 53520,
      "type": "SCALAR"
    },
    {
      "bufferView": 2,
      "byteOffset": 230640,
      "componentType": 5126,
      "count": 1164,
      "max": [
        0.9313320517539978,
        1.2630490064620972,
        1.1864382028579712
      ],
      "min": [
        -0.9313320517539978,
        -1.9103608131408691,
        0.7521176934242249
      ],
      "type": "VEC3"
    },
    {
      "bufferView": 2,
      "byteOffset": 244608,
      "componentType": 5126,
      "count": 1164,
      "max": [
        0.9983713626861572,
        0.9383144974708557,
        1.0
      ],
      "min": [
        -0.9983713626861572,
        -0.8926188945770264,
        -1.0
      ],
      "type": "VEC3"
    },
    {
      "bufferView": 1,
      "byteOffset": 76880,
      "componentType": 5126,
      "count": 1164,
      "max": [
        0.7500000596046448,
        0.7500001192092896
      ],
      "min": [
        0.531453013420105,
        0.375
      ],
      "type": "VEC2"
    },
    {
      "bufferView": 0,
      "byteOffset": 214080,
      "componentType": 5125,
      "count": 6636,
      "type": "SCALAR"
    },
    {
      "bufferView": 2,
      "byteOffset": 258576,
      "componentType": 5126,
      "count": 240,
      "max": [
        0.9990238547325134,
        -0.16344276070594788,
        0.7868816256523132
      ],
      "min": [
        -0.9990238547325134,
        -1.2838950157165527,
        0.40076902508735657
      ],
      "type": "VEC3"
    },
    {
      "bufferView": 2,
      "byteOffset": 261456,
      "componentType": 5126,
      "count": 240,
      "max": [
        0.9999632835388184,
        0.8000631332397461,
        0.7310982346534729
      ],
      "min": [
        -0.9999632835388184,
        -0.6935147047042847,
        -0.7472783923149109
      ],
      "type": "VEC3"
    },
    {
      "bufferView": 1,
      "byteOffset": 86192,
      "componentType": 5126,
      "count": 240,
      "max": [
        0.5338109731674194,
        0.7500230669975281
      ],
      "min": [
        0.44228965044021606,
        0.6458883881568909
      ],
      "type": "VEC2"
    },
    {
      "bufferView": 0,
      "byteOffset": 240624,
      "componentType": 5125,
      "count": 1416,
      "type": "SCALAR"
    },
    {
      "bufferView": 2,
      "byteOffset": 264336,
      "componentType": 5126,
      "count": 604,
      "max": [
        1.2757105827331543,
        -2.8412420749664307,
        0.630429208278656
      ],
      "min": [
        -1.2757107019424438,
        -3.656296730041504,
        0.1523149460554123
      ],
      "type": "VEC3"
    },
    {
      "bufferView": 2,
      "byteOffset": 271584,
      "componentType": 5126,
      "count": 604,
      "max": [
        0.9996702671051025,
        0.9694135785102844,
        0.9986811876296997
      ],
      "min": [
        -0.9996702671051025,
        -0.9575380682945251,
        -0.9986191987991333
      ],
      "type": "VEC3"
    },
    {
      "bufferView": 1,
      "byteOffset": 88112,
      "componentType": 5126,
      "count": 604,
      "max": [
        0.6356823444366455,
        0.7500001192092896
      ],
      "min": [
        0.6251081228256226,
        0.7499998211860657
      ],
      "type": "VEC2"
    },
    {
      "bufferView": 0,
      "byteOffset": 246288,
      "componentType": 5125,
      "count": 3480,
      "type": "SCALAR"
    },
    {
      "bufferView": 2,
      "byteOffset": 278832,
      "componentType": 5126,
      "count": 624,
      "max": [
        1.1947921514511108,
        2.1312153339385986,
        0.9671571850776672
      ],
      "min": [
        -1.1947922706604004,
        1.4358123540878296,
        0.45289871096611023
      ],
      "type": "VEC3"
    },
    {
      "bufferView": 2,
      "byteOffset": 286320,
      "componentType": 5126,
      "count": 624,
      "max": [
        0.9953096508979797,
        0.9895266890525818,
        0.9873723387718201
      ],
      "min": [
        -0.9953832626342773,
        -0.9991248846054077,
        -0.997856616973877
      ],
      "type": "VEC3"
    },
    {
      "bufferView": 1,
      "byteOffset": 92944,
      "componentType": 5126,
      "count": 624,
      "max": [
        0.5040813684463501,
        0.5000000596046448
      ],
      "min": [
        0.4828331470489502,
        0.49548643827438354
      ],
      "type": "VEC2"
    },
    {
      "bufferView": 0,
      "byteOffset": 260208,
      "componentType": 5125,
      "count": 3624,
      "type": "SCALAR"
    },
    {
      "bufferView": 2,
      "byteOffset": 293808,
      "componentType": 5126,
      "count": 7110,
      "max": [
        1.3762903213500977,
        2.1660170555114746,
        1.181882381439209
      ],
      "min": [
        -1.3762903213500977,
        -3.959934949874878,
        0.1011519730091095
      ],
      "type": "VEC3"
    },
    {
      "bufferView": 2,
      "byteOffset": 379128,
      "componentType": 5126,
      "count": 7110,
      "max": [
        1.0,
        0.9985399842262268,
        1.0
      ],
      "min": [
        -1.0,
        -0.9988227486610413,
        -1.0
      ],
      "type": "VEC3"
    },
    {
      "bufferView": 1,
      "byteOffset": 97936,
      "componentType": 5126,
      "count": 7110,
      "max": [
        0.75,
        0.875
      ],
      "min": [
        0.375,
        0.375
      ],
      "type": "VEC2"
    },
    {
      "bufferView": 0,
      "byteOffset": 274704,
      "componentType": 5125,
      "count": 42072,
      "type": "SCALAR"
    }
  ],
  "asset": {
    "extras": {
      "author": "Unity Fan youtube channel (https://sketchfab.com/unityfan777)",
      "license": "SKETCHFAB Standard (https://sketchfab.com/licenses)",
      "source": "https://sketchfab.com/3d-models/free-sci-fi-vehicle-022-public-domain-cc0-eba7965b617d4b97a79dbb0a673934c4",
      "title": "FREE Sci-Fi Vehicle 022  - public domain (CC0)"
    },
    "generator": "Sketchfab-15.50.0",
    "version": "2.0"
  },
  "bufferViews": [
    {
      "buffer": 0,
      "byteLength": 442992,
      "name": "floatBufferViews",
      "target": 34963
    },
    {
      "buffer": 0,
      "byteLength": 154816,
      "byteOffset": 442992,
      "byteStride": 8,
      "name": "floatBufferViews",
      "target": 34962
    },
    {
      "buffer": 0,
      "byteLength": 464448,
      "byteOffset": 597808,
      "byteStride": 12,
      "name": "floatBufferViews",
      "target": 34962
    }
  ],
  "buffers": [
    {
      "byteLength": 1062256,
      "uri": "scene.bin"
    }
  ],
  "extensionsUsed": [
    "KHR_materials_specular"
  ],
  "materials": [
    {
      "doubleSided": true,
      "extensions": {
        "KHR_materials_specular": {
          "specularColorFactor": [
            1.0,
            1.0,
            1.0
          ],
          "specularFactor": 0.6218877113620196
        }
      },
      "name": "body",
      "pbrMetallicRoughness": {
        "baseColorFactor": [
          0.393114,
          0.393114,
          0.393114,
          1.0
        ],
        "roughnessFactor": 0.12882518894138106
      }
    },
    {
      "doubleSided": true,
      "extensions": {
        "KHR_materials_specular": {
          "specularColorFactor": [
            1.0,
            1.0,
            1.0
          ],
          "specularFactor": 1.0
        }
      },
      "name": "glass",
      "pbrMetallicRoughness": {
        "baseColorFactor": [
          0.0,
          0.0,
          0.0,
          1.0
        ],
        "metallicFactor": 0.0,
        "roughnessFactor": 0.0
      }
    },
    {
      "doubleSided": true,
      "extensions": {
        "KHR_materials_specular": {
          "specularColorFactor": [
            1.0,
            1.0,
            1.0
          ],
          "specularFactor": 1.0
        }
      },
      "name": "headlight",
      "pbrMetallicRoughness": {
        "baseColorFactor": [
          0.8,
          0.8,
          0.8,
          1.0
        ],
        "roughnessFactor": 0.0
      }
    },
    {
      "doubleSided": true,
      "extensions": {
        "KHR_materials_specular": {
          "specularColorFactor": [
            1.0,
            1.0,
            1.0
          ],
          "specularFactor": 1.0
        }
      },
      "name": "taillights",
      "pbrMetallicRoughness": {
        "baseColorFactor": [
          1.0,
          0.0,
          0.0,
          1.0
        ],
        "roughnessFactor": 0.0
      }
    },
    {
      "doubleSided": true,
      "extensions": {
        "KHR_materials_specular": {
          "specularColorFactor": [
            1.0,
            1.0,
            1.0
          ],
          "specularFactor": 0.3057187068687716
        }
      },
      "name": "Material",
      "pbrMetallicRoughness": {
        "baseColorFactor": [
          0.0,
          0.0,
          0.0,
          1.0
        ],
        "metallicFactor": 0.0,
        "roughnessFactor": 0.5726778298645945
      }
    }
  ],
  "meshes": [
    {
      "name": "Cube_body_0",
      "primitives": [
        {
          "attributes": {
            "NORMAL": 1,
            "POSITION": 0,
            "TEXCOORD_0": 2
          },
          "indices": 3,
          "material": 0,
          "mode": 4
        }
      ]
    },
    {
      "name": "Cube.002_glass_0",
      "primitives": [
        {
          "attributes": {
            "NORMAL": 5,
            "POSITION": 4,
            "TEXCOORD_0": 6
          },
          "indices": 7,
          "material": 1,
          "mode": 4
        }
      ]
    },
    {
      "name": "Cube.003_glass_0",
      "primitives": [
        {
          "attributes": {
            "NORMAL": 9,
            "POSITION": 8,
            "TEXCOORD_0": 10
          },
          "indices": 11,
          "material": 1,
          "mode": 4
        }
      ]
    },
    {
      "name": "Cube.004_headlight_0",
      "primitives": [
        {
          "attributes": {
            "NORMAL": 13,
            "POSITION": 12,
            "TEXCOORD_0": 14
          },
          "indices": 15,
          "material": 2,
          "mode": 4
        }
      ]
    },
    {
      "name": "Cube.005_taillights_0",
      "primitives": [
        {
          "attributes": {
            "NORMAL": 17,
            "POSITION": 16,
            "TEXCOORD_0": 18
          },
          "indices": 19,
          "material": 3,
          "mode": 4
        }
      ]
    },
    {
      "name": "Cube.007_Material_0",
      "primitives": [
        {
          "attributes": {
            "NORMAL": 21,
            "POSITION": 20,
            "TEXCOORD_0": 22
          },
          "indices": 23,
          "material": 4,
          "mode": 4
        }
      ]
    }
  ],
  "nodes": [
    {
      "children": [
        1
      ],
      "matrix": [
        0.011086626909673214,
        0.0,
        0.0,
        0.0,
        0.0,
        2.4617256921096096e-18,
        -0.011086626909673214,
        0.0,
        0.0,
        0.011086626909673214,
        2.4617256921096096e-18,
        0.0,
        0.0,
        0.0,
        0.0,
        1.0
      ],
      "name": "Sketchfab_model"
    },
    {
      "children": [
        2
      ],
      "matrix": [
        1.0,
        0.0,
        0.0,
        0.0,
        0.0,
        0.0,
        1.0,
        0.0,
        0.0,
        -1.0,
        0.0,
        0.0,
        0.0,
        0.0,
        0.0,
        1.0
      ],
      "name": "0a2d66eaa53945f1ac0b57979035ff26.fbx"
    },
    {
      "children": [
        3,
        5,
        7,
        9,
        11,
        13
      ],
      "name": "RootNode"
    },
    {
      "children": [
        4
      ],
      "matrix": [
        100.0,
        0.0,
        0.0,
        0.0,
        0.0,
        -1.629206793918314e-05,
        -99.99999999999868,
        0.0,
        0.0,
        89.86898803710818,
        -1.464151658726223e-05,
        0.0,
        0.0,
        0.0,
        0.0,
        1.0
      ],
      "name": "Cube"
    },
    {
      "mesh": 0,
      "name": "Cube_body_0"
    },
    {
      "children": [
        6
      ],
      "matrix": [
        100.0,
        0.0,
        0.0,
        0.0,
        0.0,
        -1.629206793918314e-05,
        -99.99999999999868,
        0.0,
        0.0,
        89.86898803710818,
        -1.464151658726223e-05,
        0.0,
        0.0,
        0.0,
        0.0,
        1.0
      ],
      "name": "Cube.002"
    },
    {
      "mesh": 1,
      "name": "Cube.002_glass_0"
    },
    {
      "children": [
        8
      ],
      "matrix": [
        100.0,
        0.0,
        0.0,
        0.0,
        0.0,
        -1.629206793918314e-05,
        -99.99999999999868,
        0.0,
        0.0,
        89.86898803710818,
        -1.464151658726223e-05,
        0.0,
        0.0,
        0.0,
        0.0,
        1.0
      ],
      "name": "Cube.003"
    },
    {
      "mesh": 2,
      "name": "Cube.003_glass_0"
    },
    {
      "children": [
        10
      ],
      "matrix": [
        100.0,
        0.0,
        0.0,
        0.0,
        0.0,
        -1.629206793918314e-05,
        -99.99999999999868,
        0.0,
        0.0,
        89.86898803710818,
        -1.464151658726223e-05,
        0.0,
        0.0,
        0.0,
        0.0,
        1.0
      ],
      "name": "Cube.004"
    },
    {
      "mesh": 3,
      "name": "Cube.004_headlight_0"
    },
    {
      "children": [
        12
      ],
      "matrix": [
        100.0,
        0.0,
        0.0,
        0.0,
        0.0,
        -1.629206793918314e-05,
        -99.99999999999868,
        0.0,
        0.0,
        89.86898803710818,
        -1.464151658726223e-05,
        0.0,
        0.0,
        0.0,
        0.0,
        1.0
      ],
      "name": "Cube.005"
    },
    {
      "mesh": 4,
      "name": "Cube.005_taillights_0"
    },
    {
      "children": [
        14
      ],
      "matrix": [
        100.0,
        0.0,
        0.0,
        0.0,
        0.0,
        -1.629206793918314e-05,
        -99.99999999999868,
        0.0,
        0.0,
        89.86898803710818,
        -1.464151658726223e-05,
        0.0,
        0.0,
        0.0,
        0.0,
        1.0
      ],
      "name": "Cube.007"
    },
    {
      "mesh": 5,
      "name": "Cube.007_Material_0"
    }
  ],
  "scene": 0,
  "scenes": [
    {
      "name": "Sketchfab_Scene",
      "nodes": [
        0
      ]
    }
  ]
}
