{
  "accessors": [
    {
      "bufferView": 2,
      "componentType": 5126,
      "count": 62368,
      "max": [
        397.8077392578125,
        217.9761962890625,
        405.19720458984375
      ],
      "min": [
        -397.91839599609375,
        6.284618377685547,
        -396.61444091796875
      ],
      "type": "VEC3"
    },
    {
      "bufferView": 2,
      "byteOffset": 748416,
      "componentType": 5126,
      "count": 62368,
      "max": [
        0.9994039535522461,
        1.0,
        0.9998752474784851
      ],
      "min": [
        -0.99981689453125,
        -1.0,
        -0.999211847782135
      ],
      "type": "VEC3"
    },
    {
      "bufferView": 1,
      "componentType": 5126,
      "count": 62368,
      "max": [
        0.9142274260520935,
        0.9953418970108032
      ],
      "min": [
        0.15710243582725525,
        0.0030665798112750053
      ],
      "type": "VEC2"
    },
    {
      "bufferView": 1,
      "byteOffset": 498944,
      "componentType": 5126,
      "count": 62368,
      "max": [
        0.9142274260520935,
        0.9953418970108032
      ],
      "min": [
        0.15710243582725525,
        0.0030665798112750053
      ],
      "type": "VEC2"
    },
    {
      "bufferView": 0,
      "componentType": 5125,
      "count": 80688,
      "type": "SCALAR"
    },
    {
      "bufferView": 2,
      "byteOffset": 1496832,
      "componentType": 5126,
      "count": 65532,
      "max": [
        303.2542419433594,
        73.05990600585938,
        305.9007873535156
      ],
      "min": [
        -290.52923583984375,
        49.34836959838867,
        -306.4102783203125
      ],
      "type": "VEC3"
    },
    {
      "bufferView": 2,
      "byteOffset": 2283216,
      "componentType": 5126,
      "count": 65532,
      "max": [
        0.9999813437461853,
        0.9998457431793213,
        0.9998963475227356
      ],
      "min": [
        -0.999972403049469,
        -0.9999787211418152,
        -0.9999919533729553
      ],
      "type": "VEC3"
    },
    {
      "bufferView": 3,
      "componentType": 5126,
      "count": 65532,
      "max": [
        0.9999989867210388,
        0.9999942183494568,
        0.9999664425849915,
        1.0
      ],
      "min": [
        -0.9999849200248718,
        -0.9999691843986511,
        -0.9999986290931702,
        1.0
      ],
      "type": "VEC4"
    },
    {
      "bufferView": 1,
      "byteOffset": 997888,
      "componentType": 5126,
      "count": 65532,
      "max": [
        0.9143234491348267,
        0.9984280467033386
      ],
      "min": [
        0.13377663493156433,
        -2.2762153051303358e-08
      ],
      "type": "VEC2"
    },
    {
      "bufferView": 1,
      "byteOffset": 1522144,
      "componentType": 5126,
      "count": 65532,
      "max": [
        0.9143234491348267,
        0.9984280467033386
      ],
      "min": [
        0.13377663493156433,
        -2.2762153051303358e-08
      ],
      "type": "VEC2"
    },
    {
      "bufferView": 0,
      "byteOffset": 322752,
      "componentType": 5125,
      "count": 262287,
      "type": "SCALAR"
    },
    {
      "bufferView": 2,
      "byteOffset": 3069600,
      "componentType": 5126,
      "count": 65532,
      "max": [
        468.5430603027344,
        249.62399291992188,
        468.5429992675781
      ],
      "min": [
        -468.5429992675781,
        49.35025405883789,
        -468.5430603027344
      ],
      "type": "VEC3"
    },
    {
      "bufferView": 2,
      "byteOffset": 3855984,
      "componentType": 5126,
      "count": 65532,
      "max": [
        1.0,
        1.0,
        1.0
      ],
      "min": [
        -1.0,
        -1.0,
        -1.0
      ],
      "type": "VEC3"
    },
    {
      "bufferView": 3,
      "byteOffset": 1048512,
      "componentType": 5126,
      "count": 65532,
      "max": [
        0.9999299645423889,
        0.999998927116394,
        0.9998700618743896,
        1.0
      ],
      "min": [
        -0.9999496340751648,
        -0.9999695420265198,
        -0.9999831914901733,
        1.0
      ],
      "type": "VEC4"
    },
    {
      "bufferView": 1,
      "byteOffset": 2046400,
      "componentType": 5126,
      "count": 65532,
      "max": [
        0.9142661690711975,
        0.99331134557724
      ],
      "min": [
        3.920822777558897e-09,
        1.7207160141197164e-09
      ],
      "type": "VEC2"
    },
    {
      "bufferView": 1,
      "byteOffset": 2570656,
      "componentType": 5126,
      "count": 65532,
      "max": [
        0.9142661690711975,
        0.99331134557724
      ],
      "min": [
        3.920822777558897e-09,
        1.7207160141197164e-09
      ],
      "type": "VEC2"
    },
    {
      "bufferView": 0,
      "byteOffset": 1371900,
      "componentType": 5125,
      "count": 350994,
      "type": "SCALAR"
    },
    {
      "bufferView": 2,
      "byteOffset": 4642368,
      "componentType": 5126,
      "count": 42968,
      "max": [
        468.0916442871094,
        238.85202026367188,
        468.5429992675781
      ],
      "min": [
        -468.5332336425781,
        49.35148620605469,
        -468.1171875
      ],
      "type": "VEC3"
    },
    {
      "bufferView": 2,
      "byteOffset": 5157984,
      "componentType": 5126,
      "count": 42968,
      "max": [
        0.999976634979248,
        0.999784529209137,
        1.0
      ],
      "min": [
        -0.9999635815620422,
        -0.9999975562095642,
        -0.9999300241470337
      ],
      "type": "VEC3"
    },
    {
      "bufferView": 3,
      "byteOffset": 2097024,
      "componentType": 5126,
      "count": 42968,
      "max": [
        0.9999669194221497,
        0.9999988675117493,
        0.9999955296516418,
        1.0
      ],
      "min": [
        -0.9999740719795227,
        -0.9990882873535156,
        -0.9999794960021973,
        1.0
      ],
      "type": "VEC4"
    },
    {
      "bufferView": 1,
      "byteOffset": 3094912,
      "componentType": 5126,
      "count": 42968,
      "max": [
        0.9143258333206177,
        0.9992397427558899
      ],
      "min": [
        0.0018114063423126936,
        5.663171396008693e-05
      ],
      "type": "VEC2"
    },
    {
      "bufferView": 1,
      "byteOffset": 3438656,
      "componentType": 5126,
      "count": 42968,
      "max": [
        0.9143258333206177,
        0.9992397427558899
      ],
      "min": [
        0.0018114063423126936,
        5.663171396008693e-05
      ],
      "type": "VEC2"
    },
    {
      "bufferView": 0,
      "byteOffset": 2775876,
      "componentType": 5125,
      "count": 156621,
      "type": "SCALAR"
    },
    {
      "bufferView": 2,
      "byteOffset": 5673600,
      "componentType": 5126,
      "count": 56158,
      "max": [
        465.7812194824219,
        94.31758880615234,
        465.7812194824219
      ],
      "min": [
        -465.7812194824219,
        0.49054622650146484,
        -465.7812194824219
      ],
      "type": "VEC3"
    },
    {
      "bufferView": 2,
      "byteOffset": 6347496,
      "componentType": 5126,
      "count": 56158,
      "max": [
        1.0,
        1.0,
        1.0
      ],
      "min": [
        -1.0,
        -1.0,
        -1.0
      ],
      "type": "VEC3"
    },
    {
      "bufferView": 3,
      "byteOffset": 2784512,
      "componentType": 5126,
      "count": 56158,
      "max": [
        1.0,
        1.0,
        1.0,
        1.0
      ],
      "min": [
        -1.0,
        -1.0,
        -1.0,
        -1.0
      ],
      "type": "VEC4"
    },
    {
      "bufferView": 1,
      "byteOffset": 3782400,
      "componentType": 5126,
      "count": 56158,
      "max": [
        0.9143258333206177,
        1.0
      ],
      "min": [
        -8.910095772307614e-09,
        -1.0786175508314955e-08
      ],
      "type": "VEC2"
    },
    {
      "bufferView": 1,
      "byteOffset": 4231664,
      "componentType": 5126,
      "count": 56158,
      "max": [
        0.9143258333206177,
        1.0
      ],
      "min": [
        -8.910095772307614e-09,
        -1.0786175508314955e-08
      ],
      "type": "VEC2"
    },
    {
      "bufferView": 0,
      "byteOffset": 3402360,
      "componentType": 5125,
      "count": 181719,
      "type": "SCALAR"
    }
  ],
  "asset": {
    "extras": {
      "author": "BlackHawk0512 (https://sketchfab.com/BlackHawk0512)",
      "license": "SKETCHFAB Standard (https://sketchfab.com/licenses)",
      "source": "https://sketchfab.com/3d-models/ufo-flying-saucer-spaceship-ovni-094ce2baf6ee40aa8f083b7d0fcf0a9f",
      "title": "UFO Flying Saucer Spaceship OVNI"
    },
    "generator": "Sketchfab-16.12.0",
    "version": "2.0"
  },
  "bufferViews": [
    {
      "buffer": 0,
      "byteLength": 4129236,
      "name": "floatBufferViews",
      "target": 34963
    },
    {
      "buffer": 0,
      "byteLength": 4680928,
      "byteOffset": 4129236,
      "byteStride": 8,
      "name": "floatBufferViews",
      "target": 34962
    },
    {
      "buffer": 0,
      "byteLength": 7021392,
      "byteOffset": 8810164,
      "byteStride": 12,
      "name": "floatBufferViews",
      "target": 34962
    },
    {
      "buffer": 0,
      "byteLength": 3683040,
      "byteOffset": 15831556,
      "byteStride": 16,
      "name": "floatBufferViews",
      "target": 34962
    }
  ],
  "buffers": [
    {
      "byteLength": 19514596,
      "uri": "scene.bin"
    }
  ],
  "extensionsUsed": [
    "KHR_materials_clearcoat",
    "KHR_texture_transform",
    "KHR_materials_specular"
  ],
  "images": [
    {
      "uri": "textures/Ventanilla_baseColor.png"
    },
    {
      "uri": "textures/UFO_Metal_baseColor.png"
    },
    {
      "uri": "textures/UFO_Metal_normal.png"
    },
    {
      "uri": "textures/UFO_BLACK_baseColor.png"
    },
    {
      "uri": "textures/UFO_BLACK_metallicRoughness.png"
    },
    {
      "uri": "textures/UFO_BLACK_normal.png"
    }
  ],
  "materials": [
    {
      "doubleSided": true,
      "emissiveFactor": [
        1.0,
        1.0,
        1.0
      ],
      "emissiveTexture": {
        "index": 0
      },
      "extensions": {
        "KHR_materials_clearcoat": {
          "clearcoatFactor": 1.0,
          "clearcoatRoughnessFactor": 0.04
        }
      },
      "name": "Ventanilla",
      "pbrMetallicRoughness": {
        "baseColorTexture": {
          "index": 0
        },
        "metallicFactor": 0.0,
        "roughnessFactor": 0.8211145618000169
      }
    },
    {
      "doubleSided": true,
      "extensions": {
        "KHR_materials_clearcoat": {
          "clearcoatFactor": 1.0,
          "clearcoatRoughnessFactor": 0.04
        },
        "KHR_materials_specular": {
          "specularColorFactor": [
            1.0,
            1.0,
            1.0
          ],
          "specularFactor": 0.5341211865946945
        }
      },
      "name": "UFO_Metal",
      "normalTexture": {
        "index": 2
      },
      "pbrMetallicRoughness": {
        "baseColorTexture": {
          "extensions": {
            "KHR_texture_transform": {
              "scale": [
                -14.704602864403304,
                -7.000000000000005
              ]
            }
          },
          "index": 1
        },
        "roughnessFactor": 0.5219751671489173
      }
    },
    {
      "doubleSided": true,
      "extensions": {
        "KHR_materials_clearcoat": {
          "clearcoatFactor": 1.0,
          "clearcoatRoughnessFactor": 0.04
        }
      },
      "name": "UFO_BLACK",
      "normalTexture": {
        "index": 5,
        "texCoord": 1
      },
      "pbrMetallicRoughness": {
        "baseColorTexture": {
          "index": 3
        },
        "metallicRoughnessTexture": {
          "index": 4
        },
        "roughnessFactor": 0.6920194393897973
      }
    }
  ],
  "meshes": [
    {
      "name": "UFO_Ventanilla_0",
      "primitives": [
        {
          "attributes": {
            "NORMAL": 1,
            "POSITION": 0,
            "TEXCOORD_0": 2,
            "TEXCOORD_1": 3
          },
          "indices": 4,
          "material": 0,
          "mode": 4
        }
      ]
    },
    {
      "name": "UFO_UFO Metal_0",
      "primitives": [
        {
          "attributes": {
            "NORMAL": 6,
            "POSITION": 5,
            "TANGENT": 7,
            "TEXCOORD_0": 8,
            "TEXCOORD_1": 9
          },
          "indices": 10,
          "material": 1,
          "mode": 4
        }
      ]
    },
    {
      "name": "UFO_UFO Metal_0",
      "primitives": [
        {
          "attributes": {
            "NORMAL": 12,
            "POSITION": 11,
            "TANGENT": 13,
            "TEXCOORD_0": 14,
            "TEXCOORD_1": 15
          },
          "indices": 16,
          "material": 1,
          "mode": 4
        }
      ]
    },
    {
      "name": "UFO_UFO Metal_0",
      "primitives": [
        {
          "attributes": {
            "NORMAL": 18,
            "POSITION": 17,
            "TANGENT": 19,
            "TEXCOORD_0": 20,
            "TEXCOORD_1": 21
          },
          "indices": 22,
          "material": 1,
          "mode": 4
        }
      ]
    },
    {
      "name": "UFO_UFO_BLACK_0",
      "primitives": [
        {
          "attributes": {
            "NORMAL": 24,
            "POSITION": 23,
            "TANGENT": 25,
            "TEXCOORD_0": 26,
            "TEXCOORD_1": 27
          },
          "indices": 28,
          "material": 2,
          "mode": 4
        }
      ]
    }
  ],
  "nodes": [
    {
      "children": [
        1
      ],
      "matrix": [
        1.0,
        0.0,
        0.0,
        0.0,
        0.0,
        2.220446049250313e-16,
        -1.0,
        0.0,
        0.0,
        1.0,
        2.220446049250313e-16,
        0.0,
        0.0,
        0.0,
        0.0,
        1.0
      ],
      "name": "Sketchfab_model"
    },
    {
      "children": [
        2
      ],
      "matrix": [
        0.009999999776482582,
        0.0,
        0.0,
        0.0,
        0.0,
        0.0,
        0.009999999776482582,
        0.0,
        0.0,
        -0.009999999776482582,
        0.0,
        0.0,
        0.0,
        0.0,
        0.0,
        1.0
      ],
      "name": "439d7ea9fcff43a49be7f74ea04e5fd5.fbx"
    },
    {
      "children": [
        3
      ],
      "name": "RootNode"
    },
    {
      "children": [
        4,
        5,
        6,
        7,
        8
      ],
      "name": "UFO"
    },
    {
      "mesh": 0,
      "name": "UFO_Ventanilla_0"
    },
    {
      "mesh": 1,
      "name": "UFO_UFO Metal_0"
    },
    {
      "mesh": 2,
      "name": "UFO_UFO Metal_0"
    },
    {
      "mesh": 3,
      "name": "UFO_UFO Metal_0"
    },
    {
      "mesh": 4,
      "name": "UFO_UFO_BLACK_0"
    }
  ],
  "samplers": [
    {
      "magFilter": 9729,
      "minFilter": 9987,
      "wrapS": 10497,
      "wrapT": 10497
    }
  ],
  "scene": 0,
  "scenes": [
    {
      "name": "Sketchfab_Scene",
      "nodes": [
        0
      ]
    }
  ],
  "textures": [
    {
      "sampler": 0,
      "source": 0
    },
    {
      "sampler": 0,
      "source": 1
    },
    {
      "sampler": 0,
      "source": 2
    },
    {
      "sampler": 0,
      "source": 3
    },
    {
      "sampler": 0,
      "source": 4
    },
    {
      "sampler": 0,
      "source": 5
    }
  ]
}
